#!OML:ASF F:\VICON\USERDATA\INSTALL\rory3\rory3.ASF
:FULLY-SPECIFIED
:DEGREES
27
root 0.8367210560943686 18.047447940519067 -1.902651254092948 -4.26429219927792 -3.2358129972012497 1.333729277395407
lfemur -5.757797259868042 -2.955313068385002 -26.336996261648643
ltibia 27.611944806287692
lfoot -10.599006667266828 3.144411545786001
ltoes -5.006202760306174
rfemur -22.33202546987894 -3.153158516597334 22.32863630426862
rtibia 72.66812268179811
rfoot -3.3618236444433744 -5.202229467533935
rtoes 7.960191384440254
lowerback 10.758744854043998 0.6124777722812215 -1.0706611184485115
upperback 0.6767395461398269 1.5112493321930107 0.3343747435491642
thorax -5.043079945797068 0.5856025411573095 1.3430798797749899
lowerneck -16.463973852213766 -2.940075487528301 -1.7703549992190433
upperneck 21.387225661925353 -3.6332744045311025 0.3313545242226269
head 9.509384539952618 -1.8036685404650663 -0.020053912590350775
lclavicle -1.952312466468074e-15 9.076240531790667e-16
lhumerus -32.59166994508129 2.589501912958611 82.56981364477423
lradius 19.359242942007675
lwrist 3.2557074497576868
lhand -27.18736472335161 22.608360679304113
lfingers 7.12502
lthumb -0.16828226040902355 53.34940271165412
rclavicle -1.954209659500573e-15 9.058767578140185e-16
rhumerus -28.782677114195597 -21.79625869253211 -79.09562193563849
rradius 28.053664235551576
rwrist 4.008312547196345
rhand -17.414225848269275 23.24772675016522
rfingers 7.12502
rthumb 8.850800575296482 -6.292006083680916
28
root 0.8240467872019115 18.043095765170516 -1.1710714662086428 -3.899882372991414 -2.0493164477282084 1.5608489823938347
lfemur -3.3509478469172507 -2.776882933925739 -26.931989660742317
ltibia 26.56623298294049
lfoot -10.666289084902491 2.9217699912684028
ltoes -4.966576781385065
rfemur -25.26829214627884 -2.939760892954805 22.209459934746867
rtibia 68.89404820752907
rfoot -6.586691797336384 -5.317787783219665
rtoes 6.463010956205359
lowerback 10.794422131116885 0.0874905782130857 -1.8375823837702339
upperback 0.7055735681493541 0.6077615369650836 0.3768265916055997
thorax -5.023159688668836 0.22137739843283594 1.8644307261663555
lowerneck -16.82055205735126 -2.8906662620701162 -1.7741756628665912
upperneck 21.193188839905098 -3.652492901452146 0.2898917293196107
head 9.523672552083463 -1.8106779921759797 -0.06041876881301825
lclavicle -1.9523123729173216e-15 9.076241393383522e-16
lhumerus -30.475914536238925 0.27472756161420814 83.1910089360758
lradius 20.105726184035
lwrist 3.7969940386891237
lhand -27.185378194269518 22.60472923104785
lfingers 7.12502
lthumb -0.20814345178822768 53.38208468488058
rclavicle -1.954209644442125e-15 9.05876771682695e-16
rhumerus -28.934965902880975 -21.513298334121387 -78.8895339292836
rradius 28.061654667090234
rwrist 3.821245929435428
rhand -17.30903614114509 23.24531208594591
rfingers 7.12502
rthumb 8.864736763310011 -6.538540534541299
29
root 0.7938876004754775 18.055611046740495 -0.5331744847264108 -3.265984769802192 -0.9002848736897635 1.66463259581993
lfemur -0.8422871360392294 -2.785872761584317 -27.462277440932745
ltibia 23.500417349309814
lfoot -10.20167317741926 2.8911896868370324
ltoes -5.097333422900771
rfemur -27.71758029773519 -2.164822845979092 21.76948771964852
rtibia 62.26925943881831
rfoot -7.966812601141899 -6.887028354741518
rtoes 3.969915842049505
lowerback 10.65616044060871 -0.3311592749446749 -2.3502802829044365
upperback 0.7867502011851151 0.22391717631194297 0.7215481786137826
thorax -4.899668771296425 0.04978844410277378 2.4610250406694183
lowerneck -16.574989958340073 -2.8758687723750196 -1.9007114987145082
upperneck 21.072874913727368 -3.747543039683026 0.37663891942808114
head 9.488332575521177 -1.8340588364475952 -0.027233982523540673
lclavicle -1.9523128272194774e-15 9.076237209307165e-16
lhumerus -28.389274583083786 -1.4922655266640812 83.31842864191528
lradius 20.99284403090401
lwrist 4.150104323022566
lhand -27.25539826181023 22.726133022129154
lfingers 7.12502
lthumb -0.1728565688358349 53.69721377324832
rclavicle -1.954209540538137e-15 9.058768673772041e-16
rhumerus -29.61025633058295 -20.982808479232055 -78.50347166774469
rradius 27.563091802616647
rwrist 4.082357027644691
rhand -17.44875774943124 22.814676732157828
rfingers 7.12502
rthumb 8.728868714571096 -7.0520146591224115
30
root 0.7597806208294797 18.076743798490522 0.20651293616093724 -2.4135428423402874 0.2727861614397318 1.7222789265871983
lfemur 2.0292971839284117 -2.651590708021435 -27.249832632115986
ltibia 19.569334307872865
lfoot -9.92226084546284 2.3856689981547277
ltoes -4.617944544866326
rfemur -28.251857645417633 -0.7654172102165262 21.16101263081025
rtibia 52.872519637178016
rfoot -7.7275981457667555 -9.474874417841328
rtoes 2.7606183919888543
lowerback 10.27351057874727 -0.6995545886286331 -2.964334458347765
upperback 0.7455600457922914 -0.4623532108893893 0.7592572391855376
thorax -4.83208026239126 -0.2176259248153093 2.885579630469345
lowerneck -16.77644608229084 -2.8624311894432553 -1.9752162284691381
upperneck 21.01497726056505 -3.8589578749312206 0.47383948206468535
head 9.528647259631036 -1.8620960628366354 -0.04156683216976728
lclavicle -1.9523117933750937e-15 9.076246730908123e-16
lhumerus -26.115386003141516 -3.103158237309513 83.34267319194566
lradius 22.254658488964825
lwrist 4.520169316431974
lhand -27.35641053358375 22.660898181067505
lfingers 7.12502
lthumb -0.25103175875225636 53.691877209186714
rclavicle -1.954209365385464e-15 9.058770286910236e-16
rhumerus -30.177809424036873 -21.26313715183691 -78.0763538942633
rradius 26.667869417296423
rwrist 4.599952891276991
rhand -17.528228845116214 22.79105904684814
rfingers 7.12502
rthumb 8.620603960942212 -7.2260581328253854
